<?xml version="1.0" encoding="UTF-8" standalone="no"?>
<!-- Created with Inkscape (http://www.inkscape.org/) -->

<svg
   xmlns:dc="http://purl.org/dc/elements/1.1/"
   xmlns:cc="http://creativecommons.org/ns#"
   xmlns:rdf="http://www.w3.org/1999/02/22-rdf-syntax-ns#"
   xmlns:svg="http://www.w3.org/2000/svg"
   xmlns="http://www.w3.org/2000/svg"
   xmlns:sodipodi="http://sodipodi.sourceforge.net/DTD/sodipodi-0.dtd"
   xmlns:inkscape="http://www.inkscape.org/namespaces/inkscape"
   width="66"
   height="66"
   id="svg2"
   version="1.1"
   inkscape:version="0.48.4 r9939"
   sodipodi:docname="ship.svg">
  <defs
     id="defs4" />
  <sodipodi:namedview
     id="base"
     pagecolor="#ffffff"
     bordercolor="#666666"
     borderopacity="1.0"
     inkscape:pageopacity="0.0"
     inkscape:pageshadow="2"
     inkscape:zoom="4"
     inkscape:cx="38.485216"
     inkscape:cy="40.703183"
     inkscape:document-units="px"
     inkscape:current-layer="layer1"
     showgrid="false"
     inkscape:window-width="933"
     inkscape:window-height="1027"
     inkscape:window-x="984"
     inkscape:window-y="24"
     inkscape:window-maximized="0">
    <inkscape:grid
       type="xygrid"
       id="grid2985"
       empspacing="5"
       visible="true"
       enabled="true"
       snapvisiblegridlinesonly="true" />
  </sodipodi:namedview>
  <metadata
     id="metadata7">
    <rdf:RDF>
      <cc:Work
         rdf:about="">
        <dc:format>image/svg+xml</dc:format>
        <dc:type
           rdf:resource="http://purl.org/dc/dcmitype/StillImage" />
        <dc:title></dc:title>
      </cc:Work>
    </rdf:RDF>
  </metadata>
  <g
     inkscape:label="Capa 1"
     inkscape:groupmode="layer"
     id="layer1"
     transform="translate(0,-986.36218)">
    <path
       sodipodi:type="spiral"
       style="fill:none;stroke:#000000;stroke-width:3.07978249;stroke-linecap:butt;stroke-linejoin:miter;stroke-miterlimit:4;stroke-opacity:1;stroke-dasharray:none"
       id="path3778"
       sodipodi:cx="23"
       sodipodi:cy="30.5"
       sodipodi:expansion="0.95999998"
       sodipodi:revolution="3"
       sodipodi:radius="27.697021"
       sodipodi:argument="-17.802359"
       sodipodi:t0="0.039999999"
       d="m 22.712252,31.726823 c -1.4444,1.155279 -3.111014,-0.738623 -3.328361,-2.074973 -0.470275,-2.891466 2.35453,-5.057621 5.008287,-5.08744 4.151931,-0.04665 7.046508,3.943593 6.824691,7.862837 C 30.91218,37.81071 25.703906,41.462348 20.543888,40.971699 13.942192,40.343966 9.5281134,33.905548 10.293686,27.519765 11.230073,19.709184 18.899985,14.532632 26.500526,15.575415 35.512452,16.811838 41.449851,25.71107 40.129149,34.517601 38.598443,44.724455 28.473302,51.420518 18.46809,49.82192 7.0719243,48.001079 -0.38046761,36.653829 1.495653,25.456207 3.6034655,12.875732 16.168979,4.6693394 28.553517,6.8224324 42.31379,9.2147017 51.27193,22.994732 48.842497,36.561295 c -1.313219,7.333341 -5.74975,13.883048 -11.99398,17.925026"
       transform="matrix(1.3009271,0,0,1.2966624,0.09046466,979.71182)" />
  </g>
</svg>
